<svg xmlns="http://www.w3.org/2000/svg" width="273.11" height="106.25" version="1.1">
 <g transform="translate(0 .041421)" fill="#18222C">
  <path d="m24 44.7 3.5 3.2 2.6 2.8 2.4 2.6 2.1 2.5 1.8 2.5 1.4 2.4 1.1 2.4 0.8 2.3 0.5 2.2 0.2 1.3 0.2 1.1 0.2 0.9 0.1 0.8 0.1 0.5 0.2 0.4v0.2l0.1 0.2 0.1-0.2v-0.2l0.1-0.6 0.1-0.7 0.3-0.9 0.1-1.2 0.1-1.3 0.3-1.5v-1.6l-0.2-2.4-0.6-2.4-0.9-2.5-1.5-2.7-1.6-2.7-2.2-2.9-2.5-3-2.9-3.1-12.2-12.1-2.1-2.1-1.8-1.9-1.7-1.7-1.3-1.5-1.3-1.3-1-1.3-0.8-0.9-0.7-0.8 1.2 0.2 1.1 0.1 0.8 0.1h1.2l0.2-0.2-0.1-0.2-0.1-0.3-0.4-0.3-0.3-0.4-9-6.9-0.7-0.4-0.5-0.3-0.3 0.2-0.1 0.2-0.1 0.5v5.2l0.1 0.8 0.4 0.4 0.9 0.8 1 1 1.3 2.1 1.2 1.7 1.1 1.4 1 1.3 1.6 2.1 2 2.3 2.2 2.3 2.4 2.7 2.8 2.8 2.9 2.8zm77.4-32.5c0.1-0.1 0.1-0.2 0.2-0.3h0.1c0.1 0.1 0.1 0.2 0 0.4-0.6 3.4-1.7 5.2-3.1 5.2s-2.2-1.2-2.3-3.8c0.1-3.4 1-6.8 2.7-9.8 0.2-0.5 0.5-0.9 0.8-1.3-0.1 0.5-0.2 1-0.4 1.5-1.2 3.5-1.8 6-1.8 7.4 0 1.9 0.5 2.9 1.6 2.9 0.7-0.1 1.4-0.8 2.2-2.2zm1.9 41.1c-3.3 0-5 0.3-5 0.8 0 0.3 0.5 0.8 1.5 1.7 1.9 1.6 3.8 3.2 5.8 4.8 1.9 1.5 3.7 3.2 5.4 5.1 6.9-2.5 13.9-4.6 21.1-6.3-3.9-1.4-7.9-2.6-12-3.5-7-1.7-12.6-2.6-16.8-2.6zm12.2 48.8v-0.4l2.2-4.6c0.2-0.3 0.3-0.4 0.5-0.4 1.1 0.5 2.1 1.1 3 1.8 1.8 1.2 2.7 1.9 2.7 2.2 0 0.8-0.8 2.5-2.4 5-0.2 0.3-0.4 0.4-0.6 0.2-1.7-1.3-3.5-2.6-5.4-3.8zm14.9-70.9c0.1-0.1 0.1-0.2 0.2-0.3h0.1c0.1 0.1 0.1 0.2 0 0.4-0.6 3.5-1.6 5.2-3.1 5.2s-2.2-1.2-2.3-3.8c0.1-3.4 1-6.8 2.7-9.8 0.2-0.5 0.5-0.9 0.8-1.3-0.1 0.5-0.2 1-0.4 1.4-1.2 3.5-1.8 6-1.8 7.4 0 1.9 0.5 2.9 1.6 2.9 0.7 0 1.4-0.8 2.2-2.1zm-115.6 28.5c4.9-2 9.9-3.7 15-5.1 0.6-0.2 1-0.3 1.1-0.2 0.1 0 0.1 0.2-0.1 0.7-0.2 0.7-0.7 1.4-1.2 1.9l-11.2 3.8c-1.2 0.5-2.9 1.2-4.9 1.9 0.3-1 0.8-2 1.3-3z"/>
  <path d="m13.8 64c4.9-2 9.9-3.7 15-5.2 0.3-0.1 0.7-0.2 1.1-0.2 0.1 0.1 0.1 0.3-0.1 0.7-0.3 0.7-0.7 1.4-1.2 1.9-2.3 0.7-6 2-11.2 3.8-1.3 0.5-2.9 1.2-4.9 2 0.3-1 0.7-2 1.3-3zm129.1 23.5c-2.5 2.2-5.7 3.3-9 3.2-1 0-2-0.3-2.8-0.9-0.7-0.5-1.1-1.4-1.1-2.3 0.1-1.8 0.8-3.5 2-4.8 1.3-1.4 2.7-2.8 4-4.3 0.3-0.3 0.2-0.5-0.2-0.7-1-0.4-2.1-0.5-3.2-0.5-0.7 0-1.4 0.2-2.1 0.5-0.2 0.1-0.3 0.1-0.3 0v-0.3c0.3-0.9 0.8-1.6 1.4-2.2 0.8-0.5 1.8-0.8 2.7-0.7 2.7 0 4.1 0.7 4.1 2 0 1-0.9 2.5-2.6 4.3l-3.8 3.9c-0.4 0.5-0.7 1.1-0.8 1.8 0 1.1 1.3 1.7 3.8 1.7 2.6 0 5.1-0.5 7.6-1.3 0.7-0.2 1.1-0.2 1.1-0.2s-0.3 0.4-0.8 0.9zm0.5-32.2c-10.6-2.9-16.1-4.4-16.5-4.5-10.4-2.6-18.1-3.9-22.9-3.9-2.4-0.1-4.7 0.8-6.5 2.3-1.7 1.4-2.6 3.4-2.6 5.5 0 1.3 0.4 2.6 1.1 3.7 0.7 1.2 2.3 2.8 5 4.9 3 2.5 4.6 3.9 4.9 4.2-1.9 0.9-3.5 1.6-4.8 2.1-5.7 2.4-9.8 4.2-12.1 5.5-3.6 1.9-6.8 4.4-9.6 7.3-1.9 2.2-3.8 4.5-5.6 6.7-3 2.9-5.9 4.4-8.8 4.4-1.5 0.1-2.9-0.6-3.8-1.8-0.9-1.3-1.4-2.8-1.3-4.4 0-2.4 0.8-5.7 2.3-9.8s2.3-6.6 2.3-7.3c0-0.1 0-0.2-0.1-0.3s-0.5 0.4-0.9 1.1c-3.6 7-5.4 12.7-5.4 17-0.1 2.9 0.9 5.8 2.7 8 1.4 1.9 3.7 3.1 6.1 3.1 2.8 0 5.5-1.6 8.3-4.8 4.6-5.3 8.1-8.9 10.5-10.8 2.3-1.6 4.7-2.9 7.2-4 1.7-0.8 4.2-1.9 7.5-3.3 4.3-1.8 7.3-3 9-3.6 1.5 2.7 2.5 4 3 4s0.5-0.6 0.5-1.8c0-1.1-0.1-2.2-0.2-3.3 9.2-3.6 18.7-6.6 28.4-9 0.2 0 0.5-0.2 0.6-0.3 0.2-0.3 0.4-0.6 0.5-1l1.6-4.7c0.3-0.6 0.2-1-0.4-1.2z"/>
 </g>
 <path d="m110.9 65.741c-1.6-1.9-3.4-3.6-5.4-5.1-1.9-1.5-3.8-3.1-5.8-4.8-1-0.8-1.5-1.4-1.5-1.7 0-0.5 1.7-0.8 5-0.8 4.2 0 9.8 0.8 16.8 2.5 4.1 0.9 8.1 2.1 12 3.5-7.1 1.8-14.2 3.9-21.1 6.4z" fill="#18222C"/>
 <g transform="translate(0 .041421)" fill="#18222C">
  <path d="m151.4 12.9c0.1-1.9-0.3-3.8-1.1-5.6 0-0.8 0.7-2.7 2-5.8 0.2-0.4 0.3-0.6 0.4-0.6s0.3 0.2 0.5 0.6c0.4 0.8 1.2 3 2.6 6.6 1.4 3.8 2.2 6.1 2.5 6.9l0.3 1.5c0 1-1 0.4-3-1.9-0.2-0.3-0.4-0.2-0.4 0.4 0 0.2 0.5 7.4 1.6 21.6 1 14.2 1.6 22.2 1.6 24 0.1 4.9-0.8 9.8-2.5 14.4-0.4 0.8-0.6 1.4-0.8 1.8-0.3 0.6-0.5 0.7-0.6 0.2-0.1-0.9-0.1-1.8 0.1-2.7 0.2-2.2 0.3-4.4 0.3-6.6s-0.6-11.5-1.7-27.8-1.7-25-1.8-27zm14.1 40.6c5.3-2 10.6-3.7 16.1-5.1 0.7-0.2 1.1-0.3 1.1-0.2 0.1 0 0.1 0.2-0.1 0.7-0.3 0.7-0.7 1.4-1.3 1.9l-12 3.8c-1.3 0.5-3.1 1.2-5.3 1.9 0.4-1.1 0.9-2.1 1.5-3zm-1.1 4.3c5.3-2 10.6-3.7 16.1-5.2 0.4-0.1 0.8-0.2 1.1-0.2 0.1 0.1 0.1 0.3-0.1 0.7-0.3 0.7-0.7 1.4-1.3 1.9-2.4 0.7-6.5 2-12 3.8-1.3 0.5-3.1 1.2-5.3 1.9 0.4-1 1-2 1.5-2.9zm29-55.5c0 0.6-0.8 2-2.3 4.2-1.4 2-3.1 3.8-5 5.3-1 0.7-4.4 1.8-10 3.3-1 0.2-1.5 0.4-1.5 0.3 0.3-0.3 0.7-0.6 1.1-0.9 1.9-1.3 3.9-2.4 6-3.4 1.9-0.9 3.8-2 5.6-3.3 0.1-0.1 0.1-0.2 0.1-0.3 0-0.7-2.8-1.1-8.4-1.1 0 0-1.1 0.1-3.2 0.1-1 0-1.6 0-1.6-0.2 0.1-0.3 0.2-0.6 0.4-0.9l2-3.4c0.7-1.1 1.9-1.8 3.2-1.9s2.6-0.2 3.9-0.1c6.3 0 9.6 0.8 9.7 2.3zm15.9 70.7c1.4 0 2 0.6 1.6 1.8s-0.7 1.9-0.9 1.9c-0.1 0-0.2-0.1-0.5-0.4s-0.7-0.4-1.1-0.4c-1.2 0.3-2.3 0.9-3.3 1.6-1.5 0.9-2.8 2-3.9 3.3l-0.3 0.6c0 0.5 0.9 0.7 2.7 0.7 1.5 0 3-0.2 4.4-0.5 1.1-0.2 2.1-0.4 3.2-0.5 2.4 0 3.9 0.7 4.5 2.2 0.2 0.4 0.3 0.9 0.2 1.3 0 0.9-0.2 1.8-0.6 2.6-0.4 0.9-0.7 1.4-1 1.5-5.7 1.7-10.1 2.6-13 2.6-1.4 0-2.8-0.4-3.9-1.3-0.8-0.6-1.4-1.5-1.6-2.5 1.6 0.8 3.5 1.1 5.3 0.9 2.5-0.2 5-0.6 7.4-1.1 3.4-0.6 5.6-1.1 6.3-1.3-0.3-1.1-1.8-1.7-4.6-1.7-1.2 0.1-2.4 0.2-3.6 0.5-1.2 0.2-2.5 0.4-3.7 0.4-2.7 0-4-0.6-4.1-1.8 0.1-0.7 0.3-1.4 0.7-2.1 1.3-2.4 3-4.5 5.1-6.1 1.5-1.2 3-1.9 4.7-2.2zm13.1-31.8c0.1-0.1 0.1-0.2 0.2-0.3h0.1c0.1 0.1 0.1 0.2 0 0.3-0.6 3.5-1.6 5.2-3.1 5.2s-2.2-1.2-2.3-3.8c0.1-3.4 1-6.8 2.7-9.8 0.2-0.5 0.5-0.9 0.8-1.3-0.1 0.5-0.2 1-0.4 1.4-1.2 3.5-1.8 6-1.8 7.4 0 1.9 0.5 2.9 1.6 2.9 0.7 0.1 1.4-0.7 2.2-2zm13.7 55.1c-0.7 0.2-1.5 0.4-2.2 0.6h-0.1c0.4-0.4 0.9-0.7 1.4-1 1.5-0.9 2.9-1.8 4.2-2.9 0.9-0.9 2.3-2.4 4-4.5 1.1-1.3 2.4-2.6 3.8-3.6 1.4-1.1 3.2-1.8 5-1.9 0.5 0.1 1.1 0.2 1.6 0.4s1.1 0.3 1.7 0.3c0.8 0 1.6-0.3 2.1-1 0.4-0.6 0.8-1.3 1.3-2 0.3-0.5 0.6-0.7 0.8-0.7s0.2 0.1 0.2 0.3c-0.1 0.5-0.2 1-0.4 1.5-0.1 0.3 0.7 0.5 2.5 0.5 0.2 0 0.3 0 0.3-0.1 0-0.4-0.1-0.9-0.3-1.3-0.1-0.2 0-0.6 0.3-1 0.5-0.8 0.7-1.1 0.8-1.1 0.5 0.5 0.7 1.2 0.6 1.9 0 0.9-0.2 1.7-0.5 2.5-0.1 0.7-0.5 1.3-1 1.7-0.8 0.6-2 0.4-3.7-0.4-1 1.3-2.5 2-4.1 2.2-0.5 0-1.1-0.2-1.6-0.4-0.4-0.2-0.9-0.3-1.4-0.3-2.3 0-4.7 1.1-7.1 3.4-1.7 1.7-3.5 3.4-5.2 5.2-0.8 0.9-1.9 1.4-3 1.7zm-211.7-80.1c0.1-0.1 0.1-0.2 0.2-0.3h0.1c0.1 0.1 0.1 0.2 0 0.4-0.6 3.5-1.6 5.2-3.1 5.2s-2.2-1.2-2.3-3.8c0.1-3.4 1-6.8 2.7-9.8 0.2-0.5 0.5-0.9 0.8-1.3l-0.3 1.5c-1.2 3.5-1.8 6-1.8 7.4 0 1.9 0.5 2.9 1.6 2.9 0.6-0.1 1.4-0.8 2.1-2.2zm224.9-8.4c0.2-0.6 0.2-1.3 0.1-2s-0.5-1.1-1-1.1c-0.4 0.1-0.7 0.2-1.1 0.4s-0.7 0.5-0.7 0.7c0.1 0.5 1 1.1 2.7 2zm-1.4 3c-2.2-1.1-3.3-2.3-3.3-3.6 0.1-1.6 0.8-3.1 2.1-4.1 1.4-1.2 2.5-1.7 3.4-1.4s1.2 1.1 1.2 2.5-0.3 2.8-0.8 4.2c0.8 0.4 1.5 0.9 2.1 1.6-0.2 1.1-0.7 2.1-1.5 3-0.6-0.7-1.2-1.2-2-1.6-1.3 1.8-2.9 3.3-4.6 4.6-1.8 1.4-3.8 2.6-5.9 3.5-0.4 0.2-2.4 1-6.2 2.4-0.4 0.2-0.8 0.3-1.2 0.3-0.1 0-0.1 0-0.1-0.1s0.4-0.4 1-0.8c2.8-1.6 5.6-3.3 8.3-5 2.8-1.5 5.3-3.4 7.5-5.5z"/>
  <path d="m253.8 38.7 1.8-3.7c0.1-0.3 0.3-0.4 0.5-0.4 1.1 0.5 2.1 1.1 3 1.8 1.8 1.2 2.7 1.9 2.7 2.1 0 0.8-0.8 2.5-2.4 5-0.2 0.3-0.4 0.4-0.6 0.2-1.5-1.2-3.3-2.4-5.2-3.6-0.6 1.3-1.2 2.5-1.9 3.8-0.2 0.3-0.4 0.4-0.6 0.2-1.8-1.3-3.6-2.6-5.4-3.8-0.1-0.1-0.1-0.2 0-0.4l2.2-4.6c0.1-0.3 0.3-0.4 0.5-0.4 0.9 0.4 1.8 0.9 2.6 1.5 0.9 0.7 1.9 1.5 2.8 2.3z"/>
  <path d="m247.5 31.5c-0.1-0.1-0.1-0.2 0-0.4l2.2-4.6c0.1-0.3 0.3-0.4 0.5-0.4 1.1 0.5 2.1 1.1 3 1.9 1.8 1.2 2.7 1.9 2.7 2.1 0 0.8-0.8 2.5-2.4 5-0.2 0.3-0.4 0.4-0.6 0.2-1.8-1.3-3.6-2.6-5.4-3.8zm15.9-11.3c0.1-0.1 0.1-0.2 0.2-0.3h0.1c0.1 0.1 0.1 0.2 0 0.4-0.6 3.5-1.6 5.2-3.1 5.2s-2.2-1.2-2.3-3.8c0.1-3.4 1-6.8 2.7-9.8 0.2-0.5 0.5-0.9 0.8-1.3-0.1 0.5-0.2 1-0.4 1.4-1.2 3.5-1.8 6-1.8 7.4 0 1.9 0.5 2.9 1.6 2.9 0.7 0 1.4-0.8 2.2-2.1zm9 31c-0.5-1.3-0.9-1.9-1.3-1.9-0.2 0-0.4 0.3-0.5 0.8-0.6 1.6-1.1 3.3-1.5 4.9 0 0.2 0.2 0.5 0.7 1s0.7 0.7 0.7 0.9c-0.5 0.8-1.5 1.3-3.1 1.3-1.3 0-2.5-0.4-3.5-1.3-0.8-0.6-1.4-1.5-1.4-2.5 0.3-0.9 0.6-1.8 0.7-2.7 0.1-0.2 0.1-0.5 0.1-0.7 0-0.5-0.2-0.8-0.5-0.8s-0.6 0.2-1 0.7c-1.2 1.9-2.4 3.7-3.6 5.5-2.9 3.7-8.1 4.8-12.1 2.4-1.3-0.8-2.1-2.2-2-3.8 0-0.8 0.2-1.6 0.4-2.4 0.3-0.8 0.1-1.3-0.5-1.3-0.5 0.1-0.9 0.3-1.3 0.7-2.2 2.3-4.5 4.5-7 6.5-2.6 1.8-5.8 2.8-9 2.7-3-0.1-5.9-1.1-8.3-2.8-1.1-0.7-3.5-2.6-7.2-5.7-6.4-5.1-13.2-9.7-20.3-13.8-3.2-1.8-6.4-3.5-9.7-5.1-0.4-0.2-0.4-0.4-0.1-0.7 4.6-3.7 13.2-8.5 25.7-14.2s20.4-8.5 23.8-8.5c2.1 0 3.2 0.4 3.2 1.2 0 0.1 0 0.3-0.1 0.4-0.7 1.3-3 4.1-6.8 8.4-0.8 1-1.4 2.1-2 3.2-0.7 1.2-1.2 2.5-1.6 3.8-0.2 1.3-0.3 2-0.2 2s0.4-0.5 0.9-1.5c1.1-2 2.4-3.9 4-5.7 1.3-1.4 2.5-2.9 3.8-4.2 3.3-4.1 5-7.6 5-10.4 0.1-0.9-0.2-1.8-0.7-2.6-0.7-0.6-1.7-0.9-2.6-0.8-4.3 0-13 3-26.3 8.9-13.1 5.9-21.7 10.6-25.7 14.2-0.7 0.6-1.3 2-1.8 4.2-0.5 1.7-0.8 3.5-0.8 5.3 0 0.8 0.1 1.2 0.3 1.4l17.8 13.9c5.2 4.2 8.3 7.8 9.4 10.8 0.2 0.6 0 1.2-0.5 1.6-1.8 1.4-3.8 2.5-5.9 3.4-0.8 0.4-2.9 1.3-6.3 2.7-5.6 2.4-9.6 4.2-11.9 5.4-3.6 1.9-6.8 4.4-9.6 7.3-1.9 2.2-3.8 4.5-5.6 6.7-3 2.9-5.9 4.4-8.8 4.4-1.5 0.1-2.9-0.6-3.8-1.8-0.9-1.3-1.4-2.8-1.3-4.4 0-2.4 0.8-5.7 2.3-9.8s2.3-6.6 2.3-7.3c0-0.1 0-0.2-0.1-0.3s-0.5 0.4-0.9 1.1c-3.6 7-5.3 12.6-5.3 16.9-0.1 2.9 0.9 5.8 2.7 8 1.4 1.9 3.7 3.1 6.1 3.1 2.8 0 5.5-1.6 8.3-4.8 4.6-5.3 8.1-8.9 10.5-10.8 2.3-1.6 4.7-2.9 7.2-4 1.8-0.8 4.5-2 8.1-3.6 5.7-2.4 9.3-4.3 11-5.8 2.3-2 3.4-5 3.4-9-0.2-1.9-0.7-3.7-1.6-5.4-0.3-0.7-0.4-1-0.3-1s0.3 0.2 0.7 0.5c2.4 1.8 4.7 3.7 6.9 5.7 1.7 1.7 3.6 3.1 5.6 4.4 2.2 1.2 4.6 1.8 7.1 1.8 3.5-0.1 6.8-1.4 9.4-3.8 1.6-1.6 3.1-3.2 4.5-5 0.3-0.4 0.7-0.6 1.1-0.7 0.2 0 0.3 0.1 0.4 0.4 0 1.8 0.4 3.5 1.2 5.1 1.2 1.8 3.3 2.7 6.4 2.7 4.1 0 7.4-2.2 9.9-6.8 1.7 3 3.5 4.5 5.5 4.5 2.7 0.1 5.1-1.4 6.3-3.8 1.2-2.3 1.8-4.8 1.7-7.4-0.2-0.3-0.4-1.1-0.7-1.9zm-222.6 49.5 1.8-3.7c0.1-0.3 0.3-0.4 0.5-0.5 1.1 0.5 2.1 1.1 3 1.9 1.8 1.2 2.7 1.9 2.7 2.1 0 0.8-0.8 2.5-2.4 5-0.2 0.3-0.4 0.4-0.6 0.2-1.5-1.2-3.3-2.4-5.2-3.6-0.6 1.3-1.2 2.5-1.9 3.8-0.2 0.3-0.4 0.4-0.6 0.2-1.8-1.3-3.6-2.6-5.5-3.8-0.1-0.1-0.1-0.2 0-0.4l2.2-4.6c0.1-0.3 0.3-0.4 0.5-0.4 0.9 0.4 1.8 0.9 2.6 1.5 1 0.7 2 1.5 2.9 2.3zm9.2-59.3c3.4-1.7 15.4-6.5 35.9-14.2 16-5.9 32.2-12 48.6-18.1 0.2-0.1 0.4-0.2 0.6-0.1 0.1 0.1 0 0.3-0.1 0.6-0.2 0.7-0.6 1.3-1.1 1.9-8.3 3.2-24.1 9.2-47.4 18.1-22.5 8.5-35.1 13.5-37.7 15 0.3-1.1 0.7-2.2 1.2-3.2zm4 19.4c-0.6-1.5-1.4-2.9-2.3-4.2-0.3-0.5-0.7-0.5-0.9 0-0.8 1.6-1.3 3.4-1.3 5.3 0 0.3 0.1 0.6 0.2 0.8 2 3.1 3 5.2 3 6.1-0.8 1.9-2.5 2.8-5.2 2.8h-0.6l-1-0.1-0.7-0.5-0.6-0.4-0.8-1-0.7-1.2-0.6-1.4-0.5-1.8-0.2-1.1-0.1-1.3-0.2-1.8-0.1-2.2-0.1-2.4-0.3-2.7-0.1-3.2v-3.5l-0.1-4-0.1-3.6-0.2-3.5-0.1-3.1-0.4-3v-2.5l-0.3-2.3-0.2-2-0.4-3-0.4-2.6-1-5-0.4-2.4-0.5-2.2-0.6-2.2-0.5-1.9-0.2-0.6-0.2-0.1-0.3 0.2-0.2 0.6-0.1 0.4-0.2 1-0.2 0.7-0.3 0.8-0.1 1-0.2 1.1-0.1 1.2 0.4 2.1 0.2 2 0.4 1.8 0.2 1.8 0.2 1.7 0.1 1.4 0.2 1.4 0.1 1.2 0.5 3.7 0.4 3.8 0.4 8.2 0.2 4.3 0.2 9.2v4.8l-0.1 3.7-0.6 3.4-1 3.1-1.2 3-1.7 2.8-2 2.5-2.4 2.3-2.8 2-2.3 1.5-2.4 1.4-2.2 1.3-2 1.2-1.8 1.1-3.2 2-1.2 0.7-0.6 0.6-0.2 0.4 0.1 0.1h0.1l0.4 0.1h0.4l1.4-0.2 1.7-0.4 6.8-1.7 1.9-0.6 1.7-0.6 1.2-0.5 2.6-1.4 2.5-1.9 2.3-2.3 2.2-2.8 0.5-0.7 1-2.2 0.5-1.4 0.4-1.8 0.5-1.8 0.6-2 0.5-2.4 0.2 2.9 0.4 2.2 0.6 2 0.7 1.6 0.6 1 0.7 0.7 0.8 0.7 1 0.6 1 0.5 1.1 0.2 1.2 0.2 1.2 0.1v-0.2c2.1-0.2 3.8-1.5 5.2-4 1-1.8 1.5-4.4 1.5-7.9 0.1-1.8-0.3-3.8-0.9-5.7zm2.4-52.1c1.3 0 2.5 0.8 3.5 2.3 1.2 1.8 1.9 3.9 2.2 6.1 0 0.2 0.1 0.4 0.1 0.5s0.1 0.1 0.1 0 0.1-0.2 0.2-0.5c0.4-2.3 0.9-4.5 1.5-6.7 0.9-2.1 1.9-3.2 2.9-3.2 0.5 0 1.1 0.3 1.6 1.1 0.4 0.4 0.6 1 0.7 1.6 0 0.4-0.1 0.8-0.2 1.1-0.2 0.7-0.5 1-0.7 1s-0.4-0.2-0.8-0.7c-0.3-0.4-0.7-0.7-1.2-0.7-0.9 0-1.8 2.2-2.6 6.6-0.2 1.4-0.6 2.7-1.2 4-0.3 0.5-0.6 0.8-0.8 0.8s-0.3-0.2-0.3-0.7c-0.2-1.5-0.7-3-1.3-4.5-0.9-2.2-1.5-3.3-1.9-3.3-0.2 0-0.4 0.1-0.5 0.2-0.1 0.2-0.3 0.2-0.6 0.2-0.6-0.1-1.2-0.4-1.6-0.9-0.6-0.6-1-1.1-1-1.4 0.2-0.6 0.5-1.1 0.8-1.6 0.6-0.8 1-1.3 1.1-1.3zm9.1 52.4v-0.4l2.2-4.6c0.2-0.3 0.3-0.4 0.5-0.4 1.1 0.5 2.1 1.1 3 1.8 1.8 1.2 2.7 1.9 2.7 2.2 0 0.8-0.8 2.5-2.4 5-0.2 0.3-0.4 0.4-0.6 0.2-1.7-1.3-3.5-2.6-5.4-3.8zm0.2 35c8.8-3.2 18.1-6.6 27.7-10.2 0.2-0.1 0.4-0.1 0.7-0.1 0.1 0.1 0.1 0.3-0.1 0.6-0.2 0.7-0.5 1.3-1 1.9-8.1 3-17.6 6.6-28.5 11 0.2-1.2 0.6-2.2 1.2-3.2z"/>
 </g>
</svg>