<svg width="57" height="56" viewBox="0 0 57 56" fill="none" xmlns="http://www.w3.org/2000/svg">
<path d="M25.0994 12.9039C23.3028 13.5801 21.5276 14.2481 19.7728 14.9074C19.688 15.0825 19.6273 15.244 19.5924 15.3942C22.867 14.0975 25.9155 12.9212 28.7358 11.8648C28.7744 11.8292 28.8267 11.7362 28.8897 11.5828C28.9111 11.5336 28.914 11.5038 28.9003 11.4925C28.8897 11.4848 28.8564 11.4925 28.7988 11.5121C27.5717 11.9736 26.3546 12.4316 25.1473 12.8859L25.0994 12.9039Z" fill="white"/>
<path d="M24.6659 12.3097C24.7178 12.1995 24.8227 12.0955 24.9803 11.9969C25.1431 11.8934 25.3222 11.8241 25.5188 11.7893C25.5966 11.7764 25.6413 11.7711 25.6523 11.7763C25.6526 11.7764 25.6528 11.7765 25.653 11.7767C25.6533 11.7771 25.654 11.7779 25.6539 11.7784C25.6538 11.7787 25.6537 11.779 25.6536 11.7794C25.6534 11.7798 25.6532 11.7803 25.6529 11.7809C25.649 11.7892 25.6099 11.8103 25.534 11.8406C25.1672 11.9913 24.9621 12.1097 24.9197 12.1997C24.8803 12.2834 24.9 12.3441 24.978 12.3808C25.0212 12.4011 25.0663 12.4078 25.1123 12.3999C25.1454 12.3952 25.1667 12.3935 25.1738 12.394C25.1764 12.4009 25.1801 12.4058 25.186 12.4114C25.1797 12.4186 25.1643 12.4393 25.1409 12.4735C25.0155 12.6371 24.8827 12.6857 24.7389 12.6179C24.6204 12.5621 24.5953 12.4595 24.6659 12.3097Z" fill="white"/>
<path fill-rule="evenodd" clip-rule="evenodd" d="M31.1736 26.3909C31.6468 26.3909 32.1064 26.2074 32.5526 25.8408C32.6814 25.7317 32.7471 25.3373 32.7471 24.6533C32.7471 24.2378 32.6405 22.5688 32.4264 19.6437C32.2133 16.719 32.1094 14.9952 32.1094 14.4695C32.1094 13.9934 32.0331 13.6049 31.885 13.2955C31.885 13.1288 32.0214 12.7184 32.3005 12.0647C32.3308 11.9851 32.3582 11.9465 32.3884 11.9465C32.4187 11.9465 32.4538 11.9906 32.4924 12.0785C32.572 12.2478 32.7551 12.7133 33.0422 13.4739C33.3381 14.267 33.5186 14.7515 33.5759 14.9292C33.6058 15.0798 33.6226 15.1838 33.6226 15.2407C33.6226 15.46 33.4147 15.3319 32.9984 14.8555C32.9495 14.7873 32.9247 14.8168 32.9247 14.946C32.9247 14.9755 33.0181 16.2753 33.2067 18.8498C33.3928 21.4221 33.4884 22.9569 33.4884 23.452C33.4884 24.8861 33.2312 26.0163 32.7171 26.8367C32.2812 27.5259 31.7694 27.8732 31.182 27.8764V27.8834C30.9766 27.9129 30.7716 27.914 30.5666 27.8834V27.8764C30.3719 27.8761 30.1786 27.8539 29.9865 27.8098C30.0328 28.4433 30.0859 29.1665 30.1457 29.9793C30.414 33.6179 30.5476 35.6237 30.5476 35.9984C30.5476 37.1479 30.3701 38.1627 30.0144 39.0439C29.9402 39.222 29.8803 39.3502 29.8363 39.4298C29.7657 39.542 29.7241 39.5557 29.7104 39.4731C29.6891 39.3888 29.6969 39.2024 29.7324 38.915C29.7764 38.5184 29.7983 38.0587 29.7983 37.5332C29.7983 37.0654 29.6534 34.7949 29.3631 30.7203C29.2734 29.461 29.1979 28.3764 29.1363 27.4669C28.9308 27.3477 28.7266 27.2023 28.5236 27.0308C27.9666 26.5086 27.4077 25.9887 26.8469 25.467L26.6605 25.2936C26.581 25.2253 26.5317 25.1896 26.5124 25.1896C26.4876 25.1896 26.5065 25.2636 26.5726 25.411C26.7999 25.9364 26.9115 26.311 26.9115 26.5332C26.9115 27.3704 26.6711 28.0023 26.1866 28.4321C25.8393 28.744 25.0568 29.1595 23.8336 29.6742C23.0831 29.9953 22.5206 30.2466 22.1492 30.4225C21.4079 30.7676 20.8961 31.0496 20.6195 31.2681C20.1106 31.6647 19.3722 32.4231 18.4007 33.5395C17.8237 34.2067 17.2406 34.5434 16.6581 34.5434C16.4891 34.5434 16.3276 34.5171 16.1735 34.4645C16.1331 34.6377 16.0932 34.811 16.0544 34.9843C15.9557 35.4415 15.9065 35.7782 15.9065 35.9942C15.9065 36.7467 16.1582 37.4389 16.6618 38.0708C17.3458 38.9138 18.3339 39.3349 19.6306 39.3349C20.766 39.3349 21.9724 39.067 23.2503 38.5333C24.2793 38.1064 25.2038 37.5731 26.0249 36.9301C26.7659 36.3552 27.1383 35.945 27.1383 35.6986C27.1383 35.6577 26.9851 35.3376 26.6787 34.7332C26.3117 34.0212 26.0386 33.3265 25.8604 32.6531C25.7922 32.4263 25.7102 32.2731 25.6171 32.1936C25.5239 32.1146 25.4775 32.032 25.4775 31.9418C25.4775 31.8735 25.5458 31.5072 25.6829 30.845C25.7043 30.7245 25.7346 30.667 25.7732 30.667C25.8142 30.667 25.8635 30.6942 25.9211 30.7543C26.1093 30.9627 26.5142 31.373 27.1383 31.9857C27.2368 32.0872 27.2861 32.1663 27.2861 32.2239C27.2861 32.295 27.2285 32.3277 27.1079 32.3277C26.9798 32.3277 26.788 32.2897 26.5309 32.2102C26.5499 32.2897 26.7583 32.7244 27.152 33.5153C27.4696 34.1583 27.6281 34.7136 27.6281 35.179C27.6281 36.0982 27.4203 36.7959 27.0041 37.2721C26.7136 37.6101 26.3627 37.9437 25.9515 38.2725C25.9212 38.475 25.7612 38.9671 25.4668 39.7544C25.1414 40.6325 24.9802 41.3271 24.9802 41.836C24.9802 42.2271 25.0703 42.539 25.2538 42.7718C25.4457 43.0235 25.7164 43.1523 26.0607 43.1523C26.6711 43.1523 27.2869 42.84 27.9103 42.222C28.1191 41.9725 28.3287 41.7237 28.5383 41.475L28.5397 41.4733C28.7252 41.2532 28.9105 41.0332 29.0953 40.8127C29.6097 40.2327 30.2853 39.7157 31.1225 39.2612C31.6125 38.993 32.4632 38.6045 33.673 38.0956V38.1L33.6781 38.0956L34.8849 37.5838C34.7127 37.1106 34.6277 36.6269 34.6277 36.1369C34.6277 35.3952 34.7371 34.7984 34.956 34.3471C35.1774 33.8984 35.4678 33.6744 35.829 33.6744C36.149 33.6744 36.4499 33.94 36.7319 34.4763C36.9833 34.9494 37.1121 35.3817 37.1121 35.7677C37.1121 36.7465 36.8246 37.5513 36.2504 38.1777C36.6579 38.5994 37.1449 38.8103 37.714 38.8103L37.7166 38.8121V38.8103C38.1901 38.8103 38.6498 38.6268 39.0959 38.2601C39.224 38.1503 39.29 37.7567 39.29 37.0727C39.29 36.6564 39.0686 33.3953 38.6279 27.2909C38.1875 21.1839 37.9683 17.8728 37.9683 17.3588C37.9683 16.8827 37.884 16.4913 37.7166 16.1848C37.7166 16.0075 37.8559 15.5964 38.1379 14.954C38.1682 14.8744 38.1981 14.8358 38.2284 14.8358C38.2587 14.8358 38.2941 14.8744 38.3353 14.954C38.4141 15.1316 38.6005 15.5964 38.8935 16.3494C39.197 17.1396 39.3772 17.6295 39.4378 17.8185C39.468 17.9578 39.4841 18.0618 39.4841 18.13C39.4841 18.3467 39.2732 18.215 38.8577 17.728C38.8084 17.6598 38.784 17.6901 38.784 17.8185C38.784 17.8488 38.9919 20.741 39.4075 26.4945C39.8237 32.2513 40.0317 35.3763 40.0317 35.8717C40.0317 37.3047 39.7745 38.4349 39.2597 39.2561C38.8219 39.9485 38.3079 40.2958 37.7166 40.2958V40.2932L37.714 40.2958C37.1642 40.2958 36.6031 40.0547 36.0286 39.5731C35.7221 39.3159 35.4813 39.0397 35.3088 38.7417L33.6781 39.4334L33.673 39.4308C32.9123 39.7562 32.3428 40.0112 31.9682 40.1889C31.2265 40.534 30.7154 40.8153 30.4385 41.0342C29.9296 41.4311 29.1909 42.1892 28.2197 43.3055C27.6426 43.9728 27.0596 44.3095 26.477 44.3095C25.9871 44.3095 25.5602 44.088 25.1936 43.6477C24.808 43.188 24.6161 42.627 24.6161 41.9619C24.6161 41.0643 24.9779 39.8974 25.704 38.4644C25.2451 38.8095 24.719 39.1491 24.126 39.4828C22.5222 40.3746 21.0283 40.8204 19.6443 40.8204C17.7834 40.8204 16.5032 39.9096 15.8002 38.0874C15.663 37.7317 15.5947 37.2775 15.5947 36.7222C15.5947 36.3552 15.6221 35.986 15.682 35.6083C15.7563 35.1531 15.8533 34.7425 15.9738 34.3795C15.7585 34.2691 15.5588 34.1029 15.3743 33.8813C14.989 33.4216 14.7971 32.8605 14.7971 32.1955C14.7971 31.4586 15.0407 30.5406 15.5298 29.4425L15.3362 29.6019C14.7721 30.0288 14.2579 30.242 13.7929 30.242C13.3031 30.242 12.8762 30.0205 12.5098 29.58C12.1239 29.1203 11.9321 28.5592 11.9321 27.8942C11.9321 26.9804 12.3074 25.7874 13.0596 24.3184C13.1387 24.1652 13.1992 24.0887 13.2425 24.0887C13.2645 24.091 13.2727 24.1131 13.2727 24.1462C13.2727 24.2965 13.1113 24.8083 12.783 25.6865C12.4575 26.5648 12.2961 27.2594 12.2961 27.769C12.2961 28.1543 12.3862 28.4665 12.5697 28.7041C12.7669 28.9558 13.0377 29.0847 13.3767 29.0847C13.9378 29.0847 14.4633 28.9013 14.9585 28.5349C15.5659 28.0094 16.1758 27.484 16.7832 26.9614C17.8204 26.0819 18.8549 25.3982 19.8847 24.9127C19.7518 24.385 19.6518 23.8536 19.5848 23.3176C19.5658 23.1727 19.5521 23.0847 19.5409 23.0491C19.5112 22.9399 19.4483 22.8224 19.3497 22.6935L19.6835 21.8836C19.7356 21.7493 19.785 21.6841 19.823 21.6841C19.8586 21.6841 19.9162 21.7493 20.001 21.8836L20.8544 23.2493C20.9696 23.4322 21.0242 23.5663 21.0242 23.6512C21.0242 23.7113 20.9968 23.7415 20.9369 23.7415C20.8323 23.7415 20.6466 23.6543 20.3787 23.4815C20.4248 23.7957 20.5055 24.1615 20.6214 24.5777L20.7531 24.518C21.3362 24.3155 21.8368 24.2146 22.253 24.2146C22.6716 24.2146 23.0054 24.3897 23.2487 24.7454C23.4951 25.0981 23.6181 25.5659 23.6181 26.1431C23.6181 26.6247 23.5141 27.0219 23.3064 27.3336C23.098 27.6454 22.8219 27.8015 22.4828 27.8015C22.0119 27.8015 21.5577 27.5718 21.1172 27.1175C20.7888 26.7755 20.5453 26.4085 20.3815 26.0173C19.5769 26.3378 18.6518 26.9097 17.6151 27.7304C17.0653 28.1796 16.5187 28.6285 15.973 29.0776C15.8936 29.3171 15.7854 29.6204 15.6481 29.988C15.3226 30.8661 15.1612 31.5607 15.1612 32.0696C15.1612 32.4611 15.2515 32.7733 15.4349 33.0054C15.6262 33.2571 15.8975 33.3862 16.2418 33.3862C16.8523 33.3862 17.468 33.0743 18.0914 32.4556C18.2694 32.2433 18.4479 32.0315 18.6263 31.8197L18.6271 31.8188C18.8437 31.5616 19.0603 31.3045 19.276 31.0467C19.7907 30.4666 20.4667 29.9493 21.3036 29.4951C21.791 29.2288 22.6348 28.8428 23.8336 28.3379V28.3357C25.125 27.7893 25.9736 27.3646 26.3785 27.0665C26.496 26.9794 26.5368 26.8615 26.496 26.7109C26.2796 25.9199 25.388 24.8664 23.8197 23.5508C22.3748 22.3848 20.9296 21.2219 19.4846 20.059L19.4742 20.0507L19.4735 20.0501L19.322 19.9282C19.2698 19.8841 19.2424 19.7203 19.2424 19.4383C19.2424 19.072 19.281 18.6944 19.3602 18.303C19.4448 17.8678 19.5488 17.5916 19.6721 17.4796C20.5178 16.7157 22.3232 15.7033 25.0867 14.4421C27.8859 13.1613 29.7355 12.5214 30.6304 12.5214C30.8956 12.5214 31.0788 12.5736 31.1773 12.6797C31.2787 12.7866 31.3279 12.9672 31.3279 13.2244C31.3279 13.8128 30.9748 14.5461 30.2747 15.422C30.1453 15.5687 30.0153 15.7154 29.885 15.8625L29.8807 15.8673L29.8801 15.868C29.7473 16.0179 29.6141 16.1681 29.4809 16.3191C29.0599 16.8091 28.775 17.2085 28.6276 17.515C28.5291 17.7229 28.466 17.8269 28.4412 17.8269C28.4167 17.8269 28.4306 17.6872 28.4853 17.411C28.5152 17.2578 28.6327 16.9926 28.8355 16.6172C29.019 16.2699 29.1555 16.0455 29.2485 15.9415C30.042 15.0412 30.5151 14.4476 30.6738 14.1656C30.6906 14.1383 30.6957 14.1087 30.6957 14.0784C30.6957 13.9084 30.4743 13.8263 30.0285 13.8263C29.3225 13.8263 27.6477 14.4422 25.005 15.6738C22.3645 16.9046 20.5557 17.917 19.582 18.7101C19.5189 18.7656 19.5269 18.8119 19.6119 18.8498C20.4762 19.3806 21.3276 19.9282 22.1649 20.4915C24.1787 21.8574 25.9597 23.2035 27.5138 24.5304C27.9844 24.9408 28.4525 25.3541 28.9227 25.7696C28.9583 25.7961 28.9939 25.8218 29.0294 25.8466C28.9635 24.8092 28.9308 24.1918 28.9308 23.9953C28.9308 23.5166 28.8572 23.1225 28.7093 22.816C28.7093 22.6219 28.8459 22.2115 29.1226 21.5845C29.1826 21.4449 29.2484 21.448 29.3168 21.5904C29.3963 21.7597 29.5792 22.2252 29.8636 22.9858C30.1676 23.7791 30.3429 24.266 30.3921 24.4495C30.4301 24.589 30.452 24.693 30.452 24.7612C30.452 24.9803 30.2413 24.8491 29.8203 24.3675C29.771 24.2987 29.7461 24.3289 29.7461 24.4578C29.7461 24.4825 29.7888 25.09 29.875 26.2796C30.1054 26.3538 30.3339 26.3911 30.5604 26.3909V26.388C30.7709 26.4256 30.9752 26.4263 31.1736 26.3909ZM22.5481 26.3159C22.74 26.3159 22.8385 26.2636 22.8385 26.1598C22.8385 26.0066 22.7014 25.8724 22.4282 25.7578C22.2257 25.6752 21.8974 25.6728 21.4431 25.7518C21.6835 26.1272 22.0529 26.3159 22.5481 26.3159ZM36.7345 36.4047C36.7345 36.2409 36.6061 35.9892 36.3543 35.647C36.0778 35.28 35.837 35.0994 35.6346 35.0994C35.4813 35.0994 35.3307 35.1928 35.1829 35.3817C35.0355 35.5674 34.9615 35.7455 34.9615 35.9147C34.9615 36.0574 35.041 36.3091 35.2048 36.6648C35.3445 36.9764 35.4514 37.1872 35.5306 37.2941C35.7385 37.1956 35.9768 37.0562 36.2445 36.8727C36.5703 36.6542 36.7345 36.4981 36.7345 36.4047Z" fill="white"/>
<path d="M34.6687 14.216C34.8165 14.5224 34.8902 14.916 34.8902 15.3952C34.8902 15.8055 35.0326 18.0488 35.3223 22.1203C35.6127 26.1942 35.7577 28.4653 35.7577 28.9332C35.7577 29.4587 35.7356 29.9184 35.6923 30.3149C35.6568 30.6024 35.6484 30.7881 35.6703 30.8731C35.684 30.955 35.725 30.9414 35.7961 30.8292C35.8396 30.7501 35.9001 30.6214 35.9737 30.4438C36.3294 29.5627 36.5075 28.5473 36.5075 27.3984C36.5075 27.0237 36.3733 25.0178 36.105 21.3787C35.8372 17.7424 35.706 15.9011 35.706 15.8572C35.706 15.7289 35.7303 15.6987 35.7796 15.7669C36.2012 16.2485 36.4113 16.3802 36.4113 16.1612C36.4113 16.093 36.39 15.989 36.3514 15.8494C36.3022 15.666 36.1269 15.1791 35.8235 14.3852C35.5385 13.6245 35.3556 13.1597 35.2761 12.9901C35.2077 12.8479 35.1419 12.8449 35.0819 12.9844C34.8058 13.611 34.6687 14.0213 34.6687 14.216Z" fill="white"/>
<path d="M19.3713 29.8162V28.9516C19.5025 28.998 19.7595 29.0472 20.1373 29.0995C20.5148 29.1518 20.7226 29.1678 20.7637 29.1488C20.7939 29.1351 20.8106 29.0942 20.8106 29.0258V27.9446C20.8106 27.8953 20.797 27.868 20.772 27.8657C20.307 27.8163 19.8475 27.7452 19.3903 27.6549C19.3356 27.6442 19.3053 27.6768 19.3 27.7558C19.2757 28.0106 19.2698 28.3086 19.281 28.6507C18.7966 28.5906 18.3535 28.5224 17.954 28.4482C17.8993 28.4398 17.869 28.4731 17.8637 28.5497C17.7977 29.1731 17.8031 29.5621 17.8774 29.7123C17.8964 29.7533 18.1315 29.8054 18.5833 29.8738C19.0316 29.9397 19.281 29.9611 19.3243 29.9397C19.3546 29.9231 19.3713 29.8845 19.3713 29.8162Z" fill="white"/>
<path d="M22.8374 36.9221C23.0452 36.5991 23.149 36.3117 23.149 36.0599C23.149 35.7179 23.0125 35.5487 22.7418 35.5487C22.4133 35.5487 22.2079 35.7565 22.1176 36.1721C22.104 36.2571 22.0933 36.3092 22.088 36.3282C22.104 36.3337 22.1152 36.339 22.126 36.3503C22.1397 36.3443 22.1781 36.3229 22.2351 36.2843C22.3148 36.2297 22.4051 36.2024 22.5036 36.2024C22.6811 36.2024 22.772 36.298 22.772 36.4898C22.772 36.6947 22.4929 37.0972 21.9401 37.7018C21.8249 37.8246 21.7703 37.8989 21.7703 37.9179C21.7703 37.9232 21.7703 37.9261 21.7756 37.9261C21.8006 37.9261 21.8796 37.8769 22.0137 37.7837C22.3504 37.5455 22.6241 37.2588 22.8374 36.9221Z" fill="white"/>
<path d="M27.3469 16.9587C27.5547 16.6357 27.6585 16.3482 27.6585 16.0965C27.6585 15.7545 27.522 15.5853 27.2513 15.5853C26.9228 15.5853 26.7174 15.7931 26.6272 16.2087C26.6135 16.2936 26.6028 16.3458 26.5975 16.3648C26.6135 16.3703 26.6247 16.3756 26.6355 16.3868C26.6492 16.3809 26.6877 16.3595 26.7447 16.3209C26.8243 16.2663 26.9146 16.2389 27.0131 16.2389C27.1906 16.2389 27.2815 16.3345 27.2815 16.5264C27.2815 16.7313 27.0025 17.1338 26.4496 17.7383C26.3344 17.8611 26.2798 17.9355 26.2798 17.9545C26.2798 17.9598 26.2798 17.9627 26.2851 17.9627C26.3101 17.9627 26.3891 17.9134 26.5232 17.8202C26.8599 17.582 27.1336 17.2954 27.3469 16.9587Z" fill="white"/>
<path d="M26.9543 40.0666C26.896 40.4462 26.9182 40.751 27.0206 40.9809C27.1599 41.2933 27.3534 41.3923 27.6007 41.2821C27.9007 41.1484 28.0037 40.875 27.917 40.4586C27.8949 40.3754 27.8834 40.3235 27.8805 40.304C27.8637 40.3055 27.8513 40.3052 27.8369 40.2993C27.8268 40.3103 27.8004 40.3455 27.764 40.404C27.7135 40.4863 27.6421 40.548 27.5522 40.5881C27.39 40.6604 27.2681 40.61 27.19 40.4348C27.1066 40.2477 27.1976 39.7664 27.4565 38.9892C27.5117 38.8301 27.5313 38.74 27.5236 38.7226C27.5214 38.7178 27.5202 38.7151 27.5154 38.7173C27.4926 38.7275 27.4405 38.8046 27.3559 38.9443C27.1454 39.2989 27.012 39.6722 26.9543 40.0666Z" fill="white"/>
<path d="M30.7417 18.2253C30.9495 17.9023 31.0533 17.6149 31.0533 17.3632C31.0533 17.0211 30.9168 16.852 30.6461 16.852C30.3176 16.852 30.1122 17.0597 30.0219 17.4753C30.0083 17.5603 29.9976 17.6124 29.9923 17.6314C30.0083 17.6369 30.0195 17.6422 30.0303 17.6535C30.044 17.6476 30.0824 17.6261 30.1394 17.5875C30.2191 17.5329 30.3094 17.5056 30.4079 17.5056C30.5854 17.5056 30.6763 17.6012 30.6763 17.793C30.6763 17.9979 30.3972 18.4004 29.8444 19.005C29.7292 19.1278 29.6746 19.2021 29.6746 19.2211C29.6746 19.2264 29.6746 19.2293 29.6799 19.2293C29.7049 19.2293 29.7839 19.1801 29.918 19.0869C30.2547 18.8487 30.5284 18.562 30.7417 18.2253Z" fill="white"/>
<path d="M13.0983 21.9699C13.0518 22.1765 13.0524 22.345 13.1 22.4753C13.1647 22.6524 13.2674 22.7142 13.4075 22.663C13.5776 22.6009 13.6447 22.4545 13.6129 22.2222C13.6039 22.1756 13.5995 22.1466 13.5987 22.1357C13.5894 22.1359 13.5826 22.1353 13.5748 22.1315C13.5689 22.1372 13.553 22.1555 13.5308 22.1863C13.4999 22.2296 13.4583 22.2609 13.4073 22.2795C13.3154 22.3131 13.2502 22.2808 13.2139 22.1814C13.1752 22.0753 13.2436 21.8141 13.4155 21.3965C13.452 21.3112 13.4662 21.2623 13.4626 21.2525C13.4616 21.2498 13.461 21.2483 13.4583 21.2493C13.4454 21.254 13.4138 21.2944 13.362 21.368C13.2326 21.555 13.1451 21.7553 13.0983 21.9699Z" fill="white"/>
<path d="M15.1359 23.8525C15.2967 23.6033 15.3768 23.3815 15.3768 23.1873C15.3768 22.9235 15.271 22.793 15.0622 22.793C14.8089 22.793 14.6508 22.9533 14.5807 23.2739C14.5701 23.3394 14.5619 23.3798 14.5578 23.3944C14.5701 23.3985 14.5789 23.4026 14.5871 23.4113C14.5977 23.4067 14.6275 23.3902 14.6719 23.3604C14.7328 23.3183 14.8024 23.2972 14.8784 23.2972C15.0158 23.2972 15.0855 23.371 15.0855 23.519C15.0855 23.677 14.8702 23.9875 14.4437 24.4539C14.3548 24.5487 14.3127 24.606 14.3127 24.6207C14.3127 24.6248 14.3127 24.627 14.3168 24.627C14.3361 24.627 14.3975 24.589 14.5006 24.5171C14.7602 24.3334 14.9714 24.1122 15.1359 23.8525Z" fill="white"/>
<path d="M19.7769 38.6142C19.6976 38.6901 19.6168 38.7278 19.529 38.7278C19.3394 38.7278 19.2444 38.6228 19.2444 38.4145C19.2444 38.2264 19.3323 38.0043 19.5099 37.746C19.6651 37.5149 19.8112 37.3563 19.9493 37.2737C19.9769 37.2583 19.9941 37.2583 20.0009 37.277C20.0095 37.2995 20.0027 37.3237 19.9769 37.3529C19.8718 37.4494 19.7649 37.5803 19.6598 37.746C19.5409 37.9231 19.4822 38.0544 19.4822 38.1385C19.5357 38.094 19.5978 38.0731 19.6684 38.0731C19.8303 38.0731 19.9115 38.1438 19.9115 38.2885C19.9115 38.4194 19.8666 38.5281 19.7769 38.6142Z" fill="white"/>
<path d="M17.8335 17.0418C18.0414 16.7188 18.1458 16.432 18.1458 16.1802C18.1458 15.8382 18.0087 15.6684 17.738 15.6684C17.4095 15.6684 17.2042 15.8762 17.1139 16.2924C17.1002 16.3768 17.0895 16.4291 17.0842 16.4481C17.1002 16.4534 17.1114 16.4593 17.1222 16.47C17.1359 16.4646 17.1744 16.4428 17.232 16.4048C17.311 16.3494 17.4013 16.3222 17.4998 16.3222C17.678 16.3222 17.7682 16.4183 17.7682 16.6095C17.7682 16.815 17.4892 17.2169 16.9363 17.8214C16.8211 17.9449 16.7665 18.0186 16.7665 18.0376C16.7665 18.0435 16.7665 18.0458 16.7718 18.0458C16.7968 18.0458 16.8758 17.9966 17.0099 17.904C17.3466 17.6658 17.6203 17.3785 17.8335 17.0418Z" fill="white"/>
<path d="M21.9217 13.5973C22.0804 13.5005 22.1864 13.3976 22.2395 13.2879C22.3117 13.139 22.2878 13.0361 22.1699 12.979C22.0268 12.9097 21.8935 12.9568 21.7663 13.1191C21.7426 13.153 21.7269 13.1735 21.7206 13.1806C21.7264 13.1863 21.7301 13.1913 21.7325 13.1982C21.7396 13.1988 21.761 13.1973 21.7941 13.1929C21.8402 13.1855 21.8853 13.1927 21.9282 13.2135C22.0058 13.2511 22.0248 13.312 21.9845 13.3953C21.9411 13.4848 21.7348 13.601 21.3664 13.7477C21.2902 13.7771 21.2509 13.7978 21.2469 13.806C21.2456 13.8086 21.2451 13.8096 21.2475 13.8107C21.2583 13.816 21.3031 13.8112 21.3811 13.7992C21.578 13.7664 21.7578 13.699 21.9217 13.5973Z" fill="white"/>
<path d="M27.7116 30.1574C27.808 30.1574 27.8966 30.116 27.9835 30.0328C28.0819 29.9384 28.1312 29.8191 28.1312 29.6755C28.1312 29.5168 28.0421 29.4393 27.8646 29.4393C27.7871 29.4393 27.7189 29.4622 27.6603 29.511C27.6603 29.4187 27.7247 29.2747 27.8551 29.0804C27.9704 28.8986 28.0877 28.7551 28.203 28.6492C28.2312 28.6172 28.2387 28.5906 28.2292 28.566C28.2218 28.5455 28.203 28.5455 28.1727 28.5623C28.0212 28.6529 27.8609 28.8269 27.6907 29.0804C27.4958 29.3638 27.3994 29.6074 27.3994 29.8137C27.3994 30.0422 27.5037 30.1574 27.7116 30.1574Z" fill="white"/>
<path d="M16.722 32.2785C16.8099 32.2785 16.8907 32.2404 16.9699 32.1649C17.0597 32.0784 17.1046 31.9701 17.1046 31.8391C17.1046 31.6944 17.0235 31.6237 16.8615 31.6237C16.7908 31.6237 16.7288 31.6443 16.6753 31.6892C16.6753 31.6046 16.734 31.4738 16.853 31.2962C16.958 31.1309 17.0649 31 17.17 30.9035C17.1959 30.8739 17.2026 30.85 17.194 30.8276C17.1873 30.8085 17.17 30.8085 17.1424 30.8242C17.0044 30.9069 16.8581 31.0654 16.703 31.2962C16.5254 31.5546 16.4375 31.7771 16.4375 31.9648C16.4375 32.1735 16.5325 32.2785 16.722 32.2785Z" fill="white"/>
<path d="M32.5687 33.0033C32.578 32.9824 32.5896 32.9672 32.599 32.9558C32.6101 32.9504 32.6141 32.9521 32.6141 32.9615C32.6178 32.9709 32.6178 32.9882 32.6141 33.0128C32.5231 33.5152 32.3722 33.7667 32.1642 33.7667C31.9411 33.7667 31.8316 33.5817 31.8316 33.2129C31.8316 32.7576 31.962 32.281 32.2245 31.7822C32.2909 31.6592 32.3286 31.5952 32.3439 31.5931C32.3447 31.5931 32.3456 31.5936 32.3463 31.5943C32.3466 31.5947 32.3471 31.5954 32.3473 31.5957L32.3475 31.5969C32.3475 31.6215 32.3286 31.6916 32.2909 31.8085C32.1207 32.3286 32.0358 32.6911 32.0358 32.8992C32.0358 33.1826 32.1113 33.3265 32.2664 33.3265C32.3549 33.3265 32.4551 33.2187 32.5687 33.0033Z" fill="white"/>
<path d="M13.9958 33.1513C14.0094 33.1158 14.0262 33.0937 14.0397 33.0831C14.0505 33.0747 14.0587 33.0778 14.0617 33.0914C14.0671 33.1051 14.0671 33.1294 14.0617 33.165C14.0284 33.4471 13.9465 33.6989 13.8207 33.9232C13.6948 34.1447 13.5581 34.257 13.4104 34.257C13.2459 34.2593 13.1229 34.1774 13.0381 34.0023C12.9562 33.83 12.9176 33.5973 12.9288 33.3045C12.9425 32.9489 13.0517 32.4922 13.2541 31.9341C13.427 31.458 13.5802 31.1242 13.7138 30.9325C13.7986 30.8173 13.848 30.7572 13.8617 30.7549C13.867 30.774 13.8456 30.8392 13.7963 30.9544C13.4976 31.6165 13.3117 32.2293 13.2382 32.7874C13.2269 32.8504 13.2245 32.9162 13.2245 32.9791C13.2245 33.4251 13.3338 33.6382 13.5581 33.6192C13.6924 33.6026 13.8372 33.4471 13.9958 33.1513Z" fill="white"/>
<path d="M14.5477 19.1824C14.7425 19.1824 14.9391 19.371 15.136 19.748C15.3144 20.0939 15.4371 20.4794 15.5087 20.9053L15.5098 20.9132L15.5117 20.925L15.5137 20.9383C15.5169 20.9589 15.5189 20.9714 15.5189 20.9769C15.5273 20.9872 15.5313 20.9872 15.5353 20.9769C15.5393 20.9689 15.5495 20.9463 15.5642 20.9053C15.6153 20.5385 15.7158 20.0552 15.8634 19.4527C16.0044 19.1166 16.1582 18.9486 16.3241 18.9486C16.4104 18.9486 16.4944 19.0064 16.5802 19.121C16.654 19.2211 16.6908 19.3011 16.6908 19.3647C16.6908 19.4141 16.6784 19.4755 16.6522 19.5532C16.6194 19.6577 16.5802 19.7088 16.5352 19.7088C16.5166 19.7088 16.4757 19.6702 16.4144 19.5901C16.3507 19.5101 16.2854 19.4714 16.2196 19.4714C16.0827 19.4714 15.9266 19.9507 15.7527 20.9093C15.6971 21.2148 15.6358 21.4301 15.5682 21.5549C15.5211 21.6407 15.4802 21.6839 15.4473 21.6839C15.4166 21.6839 15.4023 21.6452 15.4023 21.5674C15.4023 21.4402 15.3223 21.1388 15.1644 20.6657C15.0009 20.1762 14.8919 19.932 14.8367 19.932C14.7959 19.932 14.7692 19.9445 14.759 19.9712C14.7465 19.9956 14.7136 20.0099 14.6585 20.0099C14.5949 20.0099 14.5131 19.9627 14.4104 19.8707C14.3081 19.7787 14.2587 19.7026 14.2587 19.6474C14.2587 19.6231 14.3002 19.539 14.3859 19.3954C14.4722 19.2518 14.5251 19.1824 14.5477 19.1824Z" fill="white"/>
<path d="M40.5761 20.2867C40.5761 19.8022 40.4995 19.411 40.3516 19.1152C40.3516 18.9157 40.4883 18.5024 40.7673 17.876C40.825 17.7365 40.8908 17.7394 40.959 17.8813C41.0387 18.0511 41.2215 18.5161 41.509 19.2767C41.81 20.0705 41.9881 20.5598 42.0368 20.7486C42.0754 20.8806 42.0974 20.9844 42.0974 21.0526C42.0974 21.2796 41.8835 21.1482 41.4626 20.6585C41.4134 20.5984 41.3884 20.6311 41.3884 20.7545C41.3884 20.8009 41.5446 22.9598 41.8539 27.2309C42.1626 31.5043 42.3189 33.8301 42.3189 34.2048C42.3189 35.3679 42.1413 36.3827 41.791 37.2478C41.7168 37.4284 41.6567 37.5567 41.6104 37.6362C41.5415 37.7484 41.5006 37.762 41.4845 37.6801C41.4649 37.5951 41.4733 37.4088 41.509 37.1219C41.5529 36.7248 41.5772 36.2628 41.5772 35.7343C41.5772 35.2694 41.4103 32.6811 41.0767 27.9748C40.7429 23.2663 40.5761 20.7024 40.5761 20.2867Z" fill="white"/>
<path d="M22.3479 33.3735C22.3258 33.3598 22.3258 33.3296 22.3479 33.2856L22.8211 32.3119C22.8513 32.2512 22.884 32.224 22.9173 32.224C22.9665 32.224 23.1797 32.3528 23.5574 32.61C23.9321 32.867 24.1209 33.0178 24.1209 33.0611C24.1209 33.2311 23.954 33.5813 23.6232 34.1176C23.5823 34.1858 23.5407 34.2024 23.4973 34.1697C23.1251 33.8847 22.7422 33.6223 22.3479 33.3735Z" fill="white"/>
<path d="M35.5005 32.3064L35.8782 31.5263C35.9085 31.4663 35.9412 31.4389 35.9767 31.4389C36.026 31.4389 36.2368 31.5672 36.6138 31.825C36.9891 32.082 37.1779 32.2322 37.1779 32.2762C37.1779 32.4459 37.0111 32.7957 36.6798 33.3296C36.6411 33.3955 36.5978 33.4115 36.5539 33.3812C36.2285 33.1408 35.8592 32.886 35.4482 32.6182C35.3087 32.9299 35.1752 33.1953 35.041 33.4145C35.0024 33.4828 34.9591 33.4994 34.9151 33.4661C34.5427 33.1817 34.1598 32.9193 33.7655 32.6699C33.7441 32.6562 33.7441 32.6265 33.7655 32.5826L34.2393 31.6082C34.2691 31.5482 34.3022 31.521 34.3349 31.518C34.3813 31.521 34.5617 31.6248 34.8765 31.8385C35.1942 32.0518 35.402 32.2079 35.5005 32.3064Z" fill="white"/>
<path fill-rule="evenodd" clip-rule="evenodd" d="M34.1011 28.8311C33.6721 28.6081 33.4563 28.3746 33.4563 28.13C33.4563 27.8364 33.5946 27.5666 33.8636 27.3223C34.1365 27.0779 34.3632 26.9864 34.5438 27.0533C34.6959 27.1062 34.7705 27.2693 34.7705 27.542C34.7705 27.7864 34.7205 28.0625 34.6184 28.3677C34.8343 28.4913 34.9728 28.5975 35.0257 28.6827C35.0257 28.7996 34.9297 28.994 34.7353 29.2707C34.6821 29.1855 34.5507 29.0794 34.3417 28.9517C34.1011 29.2846 33.7967 29.5896 33.4285 29.8618C33.0104 30.1701 32.6238 30.4036 32.2733 30.5597C32.2025 30.5951 31.7952 30.7511 31.0589 31.0241C30.942 31.0662 30.8674 31.0878 30.8282 31.0878C30.8105 31.0878 30.8036 31.0809 30.8036 31.0733C30.8036 31.0447 30.8674 30.9886 30.9951 30.9072C31.54 30.5843 32.0858 30.2584 32.6346 29.9294C33.2902 29.5327 33.779 29.1677 34.1011 28.8311ZM34.3632 28.2331C34.4055 28.1017 34.4132 27.9671 34.3915 27.8327C34.3632 27.6835 34.2955 27.6129 34.1894 27.6129C34.1403 27.6129 34.0696 27.6381 33.9842 27.6835C33.8959 27.7335 33.8498 27.7795 33.8498 27.8258C33.8498 27.9318 34.0234 28.0702 34.3632 28.2331Z" fill="white"/>
<path fill-rule="evenodd" clip-rule="evenodd" d="M33.5114 35.3173C33.5114 35.6475 33.3988 35.9632 33.1732 36.2612C32.9331 36.5866 32.6491 36.7492 32.3284 36.7492C31.9942 36.7492 31.8266 36.5866 31.8266 36.2612C31.8266 36.0269 31.9581 35.6829 32.2198 35.2361C32.4862 34.7842 32.7126 34.5636 32.9017 34.5636C33.0646 34.5636 33.2096 34.6352 33.331 34.7754C33.4487 34.9204 33.5114 35.1008 33.5114 35.3173ZM33.2224 35.6879C33.2224 35.3848 33.0106 35.232 32.5951 35.232C32.5362 35.232 32.4373 35.3261 32.2971 35.5163C32.1571 35.7102 32.0893 35.8417 32.0893 35.918C32.1383 36.0269 32.2923 36.0808 32.5588 36.0808C33.0018 36.0808 33.2224 35.9494 33.2224 35.6879Z" fill="white"/>
<path d="M31.314 19.6993C31.5136 19.6993 31.6151 19.7955 31.6151 19.992C31.6151 20.0965 31.5878 20.2058 31.5326 20.3179C31.4969 20.3945 31.4067 20.5175 31.2617 20.6926C31.0539 20.9308 30.9174 21.0976 30.8461 21.1962C30.7286 21.3523 30.6596 21.4314 30.6406 21.4314C30.6383 21.4314 30.6353 21.4259 30.6353 21.4206C30.6353 21.4016 30.6543 21.3493 30.69 21.2592C30.7695 21.062 30.8954 20.8649 31.076 20.6599C31.1769 20.5478 31.2838 20.4325 31.3906 20.3179C31.3497 20.2194 31.2866 20.1702 31.1965 20.1702C31.1336 20.1702 31.0539 20.1921 30.9636 20.2384C30.0581 20.6979 29.1853 20.9308 28.3452 20.9308C27.8826 20.9308 27.464 20.8299 27.0893 20.6297C27.144 20.8048 27.125 21.0128 27.0317 21.2592C26.9961 21.3548 26.9718 21.4069 26.9551 21.4093C26.9469 21.4093 26.9415 21.3493 26.9415 21.2318C26.9415 21.0128 26.9058 20.8238 26.8376 20.6653C26.8292 20.6463 26.7146 20.4736 26.4985 20.1535C26.5342 19.932 26.5887 19.8228 26.6625 19.8228C26.6707 19.8228 26.7254 19.8609 26.8292 19.9404C26.9528 20.0413 27.0787 20.1238 27.2069 20.1921C27.5876 20.3917 28.006 20.4932 28.4574 20.4932C28.9336 20.4932 29.3931 20.4248 29.8362 20.2877C30.0961 20.2058 30.4056 20.0769 30.7636 19.9017C31.0457 19.7652 31.2292 19.6993 31.314 19.6993Z" fill="white"/>
<path d="M21.0291 34.7356C21.0291 34.8288 20.9116 35.0366 20.6787 35.3651C20.4133 35.732 20.1622 36.0027 19.9241 36.1725C19.7709 36.2788 19.2644 36.4486 18.4029 36.6761C18.2496 36.7141 18.1724 36.7277 18.1724 36.7195C18.1837 36.7033 18.2354 36.6594 18.3316 36.5852C18.4438 36.498 18.7502 36.3258 19.2508 36.0604C19.7323 35.8056 20.0143 35.6417 20.0962 35.5704C20.1099 35.5539 20.1183 35.5402 20.1183 35.5265C20.1183 35.4119 19.6884 35.3567 18.835 35.3567C18.8321 35.3567 18.6683 35.3626 18.3422 35.3763C18.1867 35.3845 18.1101 35.3733 18.1101 35.3461C18.1101 35.324 18.1291 35.2801 18.1671 35.2119L18.4711 34.6976C18.5614 34.5468 18.7228 34.4541 18.958 34.4132C19.043 34.3995 19.2401 34.3936 19.5517 34.3936C20.5369 34.3936 21.0291 34.5058 21.0291 34.7356Z" fill="white"/>
<path d="M25.6645 17.8695C25.6645 17.7929 25.6152 17.724 25.5137 17.667C25.4127 17.6094 25.2566 17.582 25.0458 17.582C24.5589 17.582 24.091 17.724 23.642 18.0143C23.4532 18.1349 23.3576 18.2471 23.3576 18.351C23.3576 18.4793 23.5002 18.6242 23.7793 18.7886C24.2139 18.9881 24.5559 19.1336 24.8053 19.221C25.1663 19.4316 25.3249 19.6204 25.2815 19.7898C25.161 19.76 24.8492 19.6584 24.3456 19.4833C23.7793 19.2892 23.4289 19.1497 23.2894 19.0677C22.961 18.8789 22.7532 18.7014 22.6629 18.5398C22.6493 18.5915 22.6433 18.6491 22.6433 18.709C22.6433 19.0375 22.7972 19.2892 23.1006 19.4674C23.4699 19.6805 24.1046 19.8966 25.0131 20.1157C25.0707 20.1293 25.1747 20.0717 25.3249 19.9434C25.4916 19.801 25.5819 19.6584 25.5962 19.5166C25.6205 19.2808 25.4757 19.0731 25.1633 18.8896C25.1063 18.8599 24.9531 18.7969 24.6984 18.7067C24.4466 18.6164 24.2388 18.5232 24.0802 18.4299C23.8696 18.31 23.7656 18.2221 23.7626 18.1645C23.7656 18.1318 23.7952 18.1046 23.8612 18.0797C24.0553 18.0031 24.3125 17.9567 24.63 17.9402C24.9281 17.9212 25.1116 17.9324 25.18 17.9704C25.2785 18.0826 25.3278 18.1622 25.3249 18.2115C25.3604 18.2305 25.4483 18.1676 25.5903 18.025C25.6395 17.9757 25.6645 17.924 25.6645 17.8695Z" fill="white"/>
<path d="M26.2388 29.7016C25.6235 29.9307 25.0146 30.1573 24.4122 30.3814L24.403 30.3848C23.1602 30.8472 21.945 31.2992 20.7584 31.7425C20.6734 31.9205 20.6135 32.082 20.5778 32.2299C20.7833 32.1064 21.7707 31.718 23.5407 31.0584C25.2758 30.41 26.154 30.0763 26.173 30.0543C26.2138 30.024 26.2661 29.9284 26.3291 29.7729C26.3511 29.7235 26.3534 29.6933 26.3399 29.682C26.3291 29.6743 26.2964 29.682 26.2388 29.7016Z" fill="white"/>
<path d="M18.6697 21.5397C18.9299 21.3635 19.0729 21.2438 19.0985 21.1757C19.1615 21.0076 18.8324 20.7906 18.1121 20.5204C17.8836 20.4347 17.7384 20.3851 17.6725 20.3718C17.4889 20.3371 17.3457 20.3612 17.2385 20.4462L16.8752 20.7389C16.8287 20.7783 16.8023 20.8051 16.7963 20.8211C16.7888 20.8411 16.8417 20.8703 16.9581 20.9072C17.1998 20.9864 17.3217 21.0272 17.3234 21.0278C17.9478 21.2621 18.247 21.4203 18.2156 21.5041C18.2118 21.5141 18.2019 21.5219 18.1874 21.5302C18.1075 21.5597 17.8568 21.6023 17.4348 21.6565C16.996 21.7133 16.7242 21.755 16.6187 21.7882C16.528 21.816 16.4782 21.834 16.4655 21.8427C16.4633 21.8487 16.523 21.8597 16.6455 21.8739C17.3383 21.9442 17.7548 21.9588 17.8959 21.9231C18.1166 21.8643 18.3749 21.7353 18.6697 21.5397Z" fill="white"/>
<path d="M18.4369 24.5532C18.4313 24.2371 18.3834 24.0283 18.297 23.9226C18.1155 23.7003 17.7776 23.751 17.2799 24.0713C17.1973 24.13 17.1634 24.1665 17.1769 24.183C17.1855 24.1936 17.2651 24.1961 17.4144 24.1918C17.5643 24.187 17.6543 24.2035 17.6875 24.2441C17.7542 24.3258 17.7794 24.4442 17.7636 24.6024C17.5241 24.4413 17.3422 24.3458 17.2126 24.3204C16.9493 24.2689 16.6719 24.3602 16.3875 24.5926C16.3006 24.6636 16.0191 24.9934 15.5396 25.5833C15.0597 26.1739 14.6183 26.6387 14.2092 26.9729C13.9622 27.1746 13.8474 27.287 13.8627 27.3058C13.8766 27.3121 13.9253 27.2949 14.0147 27.2542C14.2684 27.1234 14.4996 26.9747 14.7083 26.8042C15.4178 26.2247 16.0361 25.5166 16.5651 24.6828C16.7303 24.6919 16.9362 24.7725 17.1816 24.9288L17.2027 24.9442L17.2035 24.9447C17.3835 25.0752 17.5639 25.2059 17.7446 25.3312C17.7705 25.3464 17.8635 25.3331 18.0251 25.2874C18.1857 25.2463 18.2788 25.2104 18.3062 25.184C18.3996 25.0763 18.4455 24.8675 18.4369 24.5532Z" fill="white"/>
<path d="M43.5297 23.7669C43.7785 23.3809 43.9043 23.0365 43.9043 22.7325C43.9043 22.3222 43.7405 22.1197 43.4146 22.1197C43.0232 22.1197 42.7745 22.3686 42.6652 22.8667C42.6486 22.9676 42.6378 23.0305 42.6296 23.0555C42.6486 23.0608 42.6622 23.0692 42.6758 23.0798C42.6926 23.0745 42.7365 23.0471 42.8072 23.0009C42.9032 22.9349 43.0096 22.9022 43.1277 22.9022C43.3439 22.9022 43.4502 23.0169 43.4502 23.2496C43.4502 23.4931 43.1165 23.9777 42.4515 24.7026C42.3179 24.8505 42.249 24.9378 42.249 24.9597C42.249 24.9651 42.2519 24.9704 42.2572 24.9704C42.2876 24.9704 42.3808 24.9134 42.5416 24.8011C42.9443 24.5167 43.275 24.1718 43.5297 23.7669Z" fill="white"/>
<path d="M33.5285 41.1979C33.3093 40.8694 33.0604 40.7055 32.7844 40.7055C32.7542 40.7055 32.6829 40.7983 32.5683 40.9899C32.453 41.1812 32.3985 41.2935 32.3985 41.3266C32.3985 41.4004 32.4644 41.5013 32.6009 41.6247C32.7374 41.7477 32.8473 41.8106 32.9323 41.8106C33.0059 41.8106 33.0498 41.7916 33.0659 41.7589C33.0794 41.7234 33.1152 41.7066 33.1697 41.7066C33.2494 41.7066 33.3806 41.9418 33.5694 42.4156C33.7582 42.889 33.8515 43.206 33.8515 43.3705C33.8515 43.4743 33.8705 43.526 33.9114 43.526C33.9553 43.526 34.01 43.469 34.073 43.3538C34.1631 43.187 34.245 42.8996 34.3194 42.4922C34.4861 41.5589 34.6696 41.091 34.8661 41.091C34.9564 41.091 35.0443 41.1432 35.1262 41.25C35.2112 41.3564 35.2658 41.411 35.2907 41.411C35.3507 41.411 35.403 41.3403 35.4463 41.2032C35.4819 41.0992 35.4985 41.0144 35.4985 40.949C35.4985 40.8641 35.4492 40.7572 35.3507 40.623C35.2361 40.4699 35.1239 40.3933 35.0087 40.3933C34.7872 40.3933 34.5817 40.6177 34.3929 41.069C34.2207 41.696 34.1114 42.1692 34.0675 42.4863C34.0592 42.5073 34.0525 42.525 34.047 42.5394C34.0382 42.5628 34.0327 42.5773 34.029 42.5825C34.0236 42.5985 34.0182 42.5985 34.0076 42.5825C34.0076 42.5771 34.0051 42.5617 34.0012 42.5366L33.998 42.5169L33.9955 42.5004L33.9933 42.4863C33.903 41.9555 33.7499 41.5262 33.5285 41.1979Z" fill="white"/>
<path d="M43.4044 27.4743C43.2156 27.1104 43.0268 26.9298 42.838 26.9298C42.816 26.9298 42.7643 26.9982 42.6818 27.1347C42.6029 27.2718 42.5618 27.3537 42.5618 27.3788C42.5618 27.4304 42.6111 27.5017 42.7067 27.5919C42.8053 27.6792 42.8842 27.7262 42.9449 27.7262C42.9995 27.7262 43.0297 27.7125 43.0405 27.6876C43.0517 27.6632 43.0761 27.6518 43.1171 27.6518C43.1692 27.6518 43.2756 27.8847 43.4318 28.3555C43.585 28.8121 43.6616 29.0995 43.6616 29.2224C43.6616 29.2967 43.6751 29.3347 43.7025 29.3347C43.7358 29.3347 43.7738 29.2937 43.8201 29.2117C43.886 29.0889 43.9436 28.8834 43.9981 28.5906C44.165 27.6686 44.3152 27.2089 44.4472 27.2089C44.5101 27.2089 44.573 27.2469 44.6329 27.3212C44.693 27.3978 44.7316 27.4358 44.7506 27.4358C44.7945 27.4358 44.8301 27.3864 44.8627 27.2855C44.8871 27.2113 44.9014 27.1513 44.9014 27.1051C44.9014 27.0444 44.8658 26.9655 44.7945 26.8693C44.7126 26.76 44.63 26.7054 44.5481 26.7054C44.3865 26.7054 44.2388 26.8669 44.1051 27.1899C43.9626 27.7671 43.867 28.232 43.8147 28.5853L43.8103 28.5976C43.8069 28.6073 43.8039 28.6159 43.8013 28.6234C43.7955 28.6397 43.7918 28.6503 43.7903 28.6536C43.7844 28.6643 43.7791 28.6643 43.7738 28.6536C43.7738 28.6531 43.7737 28.6525 43.7737 28.6518L43.7734 28.6494C43.7729 28.646 43.772 28.6409 43.7709 28.6343C43.7689 28.6225 43.766 28.6056 43.7631 28.5853C43.6941 28.1744 43.5742 27.8051 43.4044 27.4743Z" fill="white"/>
<path d="M43.9942 33.0402C43.8463 33.1851 43.6902 33.2564 43.5233 33.2564C43.1623 33.2564 42.9819 33.0568 42.9819 32.6596C42.9819 32.3015 43.1488 31.8775 43.4878 31.3847C43.7834 30.9471 44.0625 30.6461 44.325 30.4876C44.3773 30.4572 44.4098 30.4602 44.4235 30.4958C44.4402 30.5369 44.4265 30.5832 44.3773 30.6378C44.1771 30.8213 43.9746 31.0701 43.7722 31.3847C43.5484 31.7243 43.4361 31.9732 43.4332 32.1347C43.5347 32.0498 43.6547 32.0087 43.7918 32.0087C44.0982 32.0087 44.2537 32.1454 44.2537 32.4191C44.2537 32.6678 44.1665 32.8764 43.9942 33.0402Z" fill="white"/>
<path d="M23.1255 42.2666C23.3333 41.9436 23.4373 41.6562 23.4373 41.4045C23.4373 41.0624 23.3006 40.8927 23.0299 40.8927C22.7016 40.8927 22.496 41.1011 22.4057 41.5166C22.3922 41.6016 22.3814 41.6533 22.3755 41.6729C22.3922 41.6782 22.4029 41.6835 22.4141 41.6948C22.4278 41.6889 22.4658 41.6674 22.5234 41.629C22.6031 41.5743 22.6932 41.547 22.7918 41.547C22.9694 41.547 23.0595 41.6425 23.0595 41.8343C23.0595 42.0392 22.7806 42.4418 22.2284 43.0463C22.1131 43.1691 22.0584 43.2434 22.0584 43.2624C22.0584 43.2678 22.0584 43.2706 22.0637 43.2706C22.0888 43.2706 22.1677 43.2214 22.3019 43.1282C22.6386 42.89 22.9124 42.6027 23.1255 42.2666Z" fill="white"/>
<path d="M30.9772 43.785C30.9879 43.7623 30.9967 43.7473 31.0075 43.7415C31.0133 43.734 31.0178 43.7354 31.0208 43.7461C31.0252 43.7548 31.0252 43.7713 31.0208 43.7938C30.9983 43.9794 30.946 44.1453 30.8636 44.2904C30.7798 44.4372 30.6903 44.5102 30.5929 44.5102C30.4867 44.5135 30.4046 44.4579 30.3491 44.3443C30.2939 44.2307 30.2699 44.0782 30.2773 43.8866C30.2865 43.6503 30.3776 43.3016 30.5497 42.8439C30.6991 42.4417 30.8279 42.1573 30.9386 41.9882C30.9879 41.9136 31.0191 41.8746 31.0356 41.8717C31.0386 41.8837 31.0252 41.9285 30.9925 42.0018C30.7483 42.545 30.5916 42.9832 30.5195 43.3166C30.4896 43.4496 30.4763 43.5711 30.4763 43.6773C30.4763 43.8268 30.5033 43.9389 30.5584 44.0138C30.6003 44.0752 30.6439 44.1005 30.6902 44.0915C30.7844 44.072 30.8801 43.9704 30.9772 43.785Z" fill="white"/>
<path fill-rule="evenodd" clip-rule="evenodd" d="M34.2142 6.36326L28.4167 0L22.6191 6.36326L14.4167 3.75129L12.5775 12.1608L4.16797 14L6.77995 22.2025L0.416687 28L6.77995 33.7975L4.16797 42L12.5775 43.8392L14.4167 52.2487L22.6191 49.6367L28.4167 56L34.2142 49.6367L42.4167 52.2487L44.2558 43.8392L52.6654 42L50.0534 33.7975L56.4166 28L50.0534 22.2025L52.6654 14L44.2558 12.1608L42.4167 3.75129L34.2142 6.36326ZM16.8796 8.0172L23.6391 10.1697L28.4167 4.92585L33.1943 10.1697L39.9537 8.0172L41.4694 14.9473L48.3995 16.4629L46.247 23.2224L51.4908 28L46.247 32.7776L48.3995 39.5371L41.4694 41.0527L39.9537 47.9828L33.1943 45.8303L28.4167 51.0741L23.6391 45.8303L16.8796 47.9828L15.364 41.0527L8.43389 39.5371L10.5864 32.7776L5.34254 28L10.5864 23.2224L8.43389 16.4629L15.364 14.9473L16.8796 8.0172Z" fill="white"/>
</svg>
