<svg width="21" height="21" viewBox="0 0 21 21" fill="none" xmlns="http://www.w3.org/2000/svg">
<path d="M10.3522 1.92399C10.4315 1.83691 10.5685 1.83691 10.6478 1.92399L12.2771 3.71227C12.3298 3.77003 12.4112 3.79186 12.4857 3.76815L14.7908 3.0341C14.9031 2.99836 15.0217 3.06687 15.0469 3.18194L15.5638 5.54529C15.5805 5.62163 15.6401 5.68125 15.7164 5.69794L18.0798 6.21482C18.1949 6.23998 18.2634 6.35865 18.2276 6.47089L17.4936 8.77605C17.4699 8.8505 17.4917 8.93195 17.5494 8.98457L19.3377 10.6139C19.4248 10.6932 19.4248 10.8302 19.3377 10.9096L17.5494 12.5389C17.4917 12.5915 17.4699 12.6729 17.4936 12.7474L18.2276 15.0526C18.2634 15.1648 18.1949 15.2835 18.0798 15.3086L15.7164 15.8255C15.6401 15.8422 15.5805 15.9018 15.5638 15.9781L15.0469 18.3415C15.0217 18.4566 14.9031 18.5251 14.7908 18.4893L12.4857 17.7553C12.4112 17.7316 12.3298 17.7534 12.2771 17.8112L10.6478 19.5995C10.5685 19.6865 10.4315 19.6865 10.3522 19.5995L8.72286 17.8112C8.67023 17.7534 8.58879 17.7316 8.51433 17.7553L6.20917 18.4893C6.09693 18.5251 5.97827 18.4566 5.9531 18.3415L5.43623 15.9781C5.41953 15.9018 5.35991 15.8422 5.28357 15.8255L2.92022 15.3086C2.80515 15.2835 2.73664 15.1648 2.77238 15.0526L3.50643 12.7474C3.53014 12.6729 3.50832 12.5915 3.45056 12.5389L1.66227 10.9096C1.5752 10.8302 1.5752 10.6932 1.66227 10.6139L3.45056 8.98457C3.50832 8.93195 3.53014 8.8505 3.50643 8.77605L2.77238 6.47089C2.73664 6.35865 2.80515 6.23998 2.92022 6.21482L5.28357 5.69794C5.35991 5.68125 5.41953 5.62163 5.43623 5.54529L5.9531 3.18194C5.97827 3.06687 6.09693 2.99836 6.20917 3.0341L8.51433 3.76815C8.58879 3.79186 8.67023 3.77003 8.72286 3.71227L10.3522 1.92399Z" stroke="#fff" stroke-width="2"/>
</svg>
